<?xml version="1.0" standalone="no"?>
<!DOCTYPE svg PUBLIC "-//W3C//DTD SVG 20010904//EN"
 "http://www.w3.org/TR/2001/REC-SVG-20010904/DTD/svg10.dtd">
<svg version="1.0" xmlns="http://www.w3.org/2000/svg"
 width="640.000000pt" height="1280.000000pt" viewBox="0 0 640.000000 1280.000000"
 preserveAspectRatio="xMidYMid meet">
<metadata>
Created by potrace 1.15, written by Peter Selinger 2001-2017
</metadata>
<g transform="translate(0.000000,1280.000000) scale(0.100000,-0.100000)"
fill="#000000" stroke="none">
<path d="M2257 12789 c-16 -9 -18 -19 -12 -69 l7 -58 -74 1 c-120 0 -198 -46
-198 -118 0 -22 -22 -65 -75 -144 -41 -62 -89 -129 -105 -148 -49 -55 -92
-150 -98 -215 -4 -50 -1 -63 20 -95 18 -26 28 -58 32 -101 3 -36 23 -108 47
-170 22 -59 47 -127 55 -152 15 -50 19 -136 5 -144 -4 -3 -39 1 -77 9 -187 40
-286 5 -350 -122 -24 -47 -49 -72 -149 -153 -270 -218 -395 -408 -479 -730
-53 -199 -61 -282 -61 -605 0 -375 16 -489 119 -869 24 -89 50 -188 56 -221
20 -98 15 -216 -16 -360 -22 -101 -28 -158 -28 -255 -1 -121 0 -127 32 -199
66 -145 58 -197 -78 -481 -140 -293 -166 -407 -157 -708 6 -212 20 -299 77
-483 77 -245 107 -417 160 -909 53 -504 84 -707 136 -897 37 -138 44 -225 33
-428 -12 -210 -25 -278 -80 -397 -53 -114 -56 -141 -30 -226 25 -82 26 -129 6
-195 -8 -26 -23 -109 -35 -185 -11 -75 -36 -218 -55 -317 -58 -305 -67 -372
-75 -610 -10 -271 -13 -285 -130 -625 -134 -389 -161 -522 -140 -711 19 -171
51 -277 140 -456 l79 -161 58 -23 c54 -21 79 -23 348 -30 160 -3 355 -12 435
-19 271 -23 580 2 700 56 68 31 97 57 121 109 41 88 12 191 -70 250 -25 19
-70 61 -99 94 -40 46 -73 71 -141 106 -48 25 -98 56 -110 69 -34 36 -32 100 4
162 55 95 65 119 65 148 0 17 -27 87 -60 157 -76 160 -77 181 -15 270 85 120
103 246 70 494 -21 156 -30 416 -17 497 13 83 35 129 115 243 42 61 70 113 85
162 13 39 30 77 38 84 10 8 40 10 100 6 73 -4 96 -10 167 -45 102 -50 144 -57
233 -38 38 8 137 17 221 19 149 4 151 4 161 -19 21 -44 32 -105 112 -579 44
-264 93 -545 107 -625 35 -195 42 -536 19 -850 -9 -118 -16 -253 -16 -300 0
-148 -13 -168 -153 -254 -88 -54 -110 -80 -105 -128 3 -30 8 -35 58 -52 42
-15 83 -19 175 -20 140 0 216 18 257 61 37 40 44 57 68 172 27 128 53 198 92
245 53 65 71 51 178 -141 64 -117 81 -131 114 -97 25 24 19 80 -25 265 l-40
171 17 73 17 73 -26 54 c-14 29 -60 90 -101 135 -48 53 -79 96 -85 120 -16 58
-13 221 8 393 11 85 25 229 30 320 19 282 24 302 65 260 34 -35 383 -558 470
-706 50 -83 79 -146 91 -191 32 -127 68 -228 143 -408 132 -318 131 -314 81
-401 -19 -33 -29 -64 -27 -81 l3 -28 90 0 c82 0 95 3 145 31 79 45 120 114
120 204 0 78 -20 150 -66 242 -23 46 -34 82 -34 111 0 48 22 87 49 87 10 0 67
-43 127 -95 109 -95 139 -110 164 -80 18 22 6 54 -44 113 -79 92 -160 246
-211 401 -22 68 -73 119 -150 150 -74 30 -117 61 -144 104 -11 19 -50 121 -85
228 -36 107 -92 259 -126 339 -86 201 -252 638 -257 678 -4 26 -2 32 13 32 29
0 111 -42 215 -107 119 -76 152 -93 214 -109 101 -27 215 -12 313 41 61 33 87
59 149 150 32 47 61 77 88 91 22 11 41 28 43 37 2 11 -37 59 -101 126 -125
129 -186 209 -238 313 -69 137 -91 246 -114 553 -33 445 -63 594 -221 1080
-76 232 -130 436 -234 875 -18 79 -68 232 -119 370 -49 129 -91 246 -94 259
-4 16 7 56 30 115 35 86 37 98 37 206 1 112 0 118 -33 185 -29 59 -64 100
-231 270 -108 110 -209 222 -225 248 -27 48 -28 51 -22 160 12 200 63 375 191
654 84 183 136 307 176 421 18 52 38 91 44 89 7 -2 12 -42 13 -106 2 -113 12
-140 63 -166 52 -27 69 5 25 49 -25 25 -33 56 -15 56 5 0 21 -17 35 -38 14
-21 43 -48 64 -60 28 -16 47 -38 67 -79 34 -67 83 -102 179 -128 82 -23 100
-13 89 49 -15 85 1 110 77 120 53 7 89 33 89 65 0 10 -7 38 -15 61 -19 54 -20
120 -2 120 16 0 56 -77 64 -123 4 -27 -4 -50 -36 -111 -56 -105 -54 -186 3
-186 25 0 36 17 36 54 0 13 21 54 46 92 56 85 72 121 80 184 6 46 8 49 29 44
17 -4 26 0 34 14 14 26 2 59 -44 119 -44 58 -44 88 -1 166 38 68 66 160 66
219 0 51 10 50 167 -14 116 -47 135 -52 208 -52 105 -1 157 24 248 117 67 70
84 107 48 107 -18 0 -32 -9 -141 -92 -65 -50 -108 -64 -167 -55 -66 11 -71 47
-7 47 42 0 101 23 132 53 26 24 82 128 82 152 0 23 -34 18 -98 -14 -78 -39
-97 -30 -64 33 33 62 65 89 114 95 29 4 44 11 46 23 5 27 -34 58 -73 58 -66 0
-112 -37 -179 -142 -24 -40 -42 -58 -56 -58 -29 0 -58 53 -66 119 -4 31 -13
76 -20 101 -14 47 -9 67 10 36 6 -11 21 -31 34 -44 27 -28 37 -27 132 14 62
26 72 28 209 26 161 -1 205 10 199 51 -3 19 -12 23 -60 29 -64 8 -107 27 -138
61 -31 33 -82 125 -77 140 2 8 23 11 68 9 52 -3 69 0 89 16 36 29 21 48 -47
56 -104 12 -203 74 -203 128 0 11 12 39 26 63 26 45 25 65 -3 65 -8 0 -54 -40
-102 -88 -129 -132 -219 -176 -271 -133 -34 27 -17 42 55 52 106 14 163 77
235 260 23 57 53 119 67 137 52 69 7 94 -60 33 -40 -37 -50 -41 -95 -41 -64 0
-103 -30 -128 -100 -20 -57 -31 -62 -40 -22 -31 127 -47 179 -64 207 -11 18
-20 35 -20 37 0 3 53 7 118 10 136 5 166 17 213 87 34 51 35 57 13 65 -10 4
-33 -10 -66 -39 -76 -68 -105 -73 -206 -36 -91 34 -124 37 -183 19 -28 -8 -46
-8 -62 -1 -36 17 -74 99 -91 201 -51 297 -212 481 -492 563 -75 22 -231 36
-286 25 -19 -3 -54 -22 -77 -42 -26 -23 -66 -44 -109 -56 -101 -30 -138 -53
-227 -138 -92 -88 -132 -113 -178 -108 -29 3 -36 10 -67 73 -32 63 -35 77 -35
155 0 75 4 93 32 153 18 37 36 67 42 67 5 0 19 -13 31 -30 25 -35 59 -39 85
-10 l18 20 22 -20 c24 -23 55 -26 73 -8 18 18 14 113 -7 187 -34 115 -34 116
23 116 86 0 88 52 6 139 -44 47 -49 56 -52 106 l-3 54 -50 14 c-57 17 -85 34
-192 121 -43 35 -106 77 -140 92 -46 22 -69 40 -92 73 -23 33 -39 45 -64 50
-19 4 -50 22 -70 41 -41 40 -66 43 -202 23 -71 -10 -87 -9 -124 5 -47 19 -103
12 -171 -23 -56 -29 -81 -25 -121 16 -56 59 -102 76 -142 53z m807 -1925 c7
-19 -10 -44 -30 -44 -15 0 -28 35 -19 50 10 16 42 12 49 -6z m-354 -136 c72
-38 90 -43 169 -48 87 -5 89 -6 135 -48 25 -23 83 -67 129 -96 95 -62 114 -81
133 -133 19 -55 18 -207 -2 -227 -24 -25 -109 -20 -341 19 -293 49 -307 53
-332 79 -28 30 -30 54 -6 106 16 36 17 46 6 73 -7 18 -20 52 -29 77 -8 25 -26
59 -38 77 -29 39 -30 58 -3 103 44 74 68 76 179 18z m2639 -141 c12 -16 2 -60
-25 -107 -23 -39 -40 -38 -48 1 -10 53 -7 78 14 99 23 23 43 25 59 7z m-84
-617 c-3 -5 -15 -10 -26 -10 -10 0 -19 5 -19 10 0 6 12 10 26 10 14 0 23 -4
19 -10z m244 -49 c17 -16 31 -34 31 -40 0 -11 -43 -21 -110 -24 -40 -2 -45 1
-48 21 -10 69 70 96 127 43z m-388 -101 c10 -6 19 -15 19 -20 0 -16 -26 -11
-51 10 -21 17 -22 19 -6 20 10 0 27 -5 38 -10z m-712 -959 c-1 -48 -22 -106
-40 -106 -39 0 -49 108 -14 162 l18 27 18 -23 c11 -14 19 -38 18 -60z"/>
</g>
</svg>
