<?xml version="1.0" standalone="no"?>
<!DOCTYPE svg PUBLIC "-//W3C//DTD SVG 20010904//EN"
 "http://www.w3.org/TR/2001/REC-SVG-20010904/DTD/svg10.dtd">
<svg version="1.0" xmlns="http://www.w3.org/2000/svg"
 width="846.000000pt" height="1280.000000pt" viewBox="0 0 846.000000 1280.000000"
 preserveAspectRatio="xMidYMid meet">
<metadata>
Created by potrace 1.15, written by Peter Selinger 2001-2017
</metadata>
<g transform="translate(0.000000,1280.000000) scale(0.100000,-0.100000)"
fill="#000000" stroke="none">
<path d="M4700 12793 c-287 -19 -470 -44 -695 -94 -1118 -247 -2221 -1055
-3042 -2230 -453 -648 -796 -1425 -902 -2050 -43 -248 -55 -443 -55 -869 -1
-527 24 -816 105 -1225 123 -620 329 -1209 640 -1825 327 -649 702 -1168 1107
-1533 164 -147 253 -215 393 -298 l116 -68 7 -83 c17 -190 67 -360 170 -572
385 -791 1184 -1492 2023 -1775 357 -120 643 -165 1043 -165 520 1 797 76
1157 313 640 420 1008 1079 1129 2016 28 214 26 676 -4 838 -49 265 -128 465
-272 691 -68 105 -71 126 -37 201 45 96 52 141 51 310 0 134 -4 170 -21 222
-53 160 -262 360 -489 468 -39 19 -117 47 -172 64 -136 40 -195 73 -268 145
-110 110 -163 263 -150 431 17 227 115 452 302 691 83 107 280 307 324 330 23
11 73 20 145 25 133 10 204 28 299 75 310 156 604 532 741 949 47 140 75 269
96 430 18 137 18 877 0 1035 -70 625 -294 1291 -608 1807 -280 462 -714 914
-1168 1218 -577 386 -1078 539 -1740 533 -99 -1 -200 -3 -225 -5z m572 -759
c396 -55 777 -232 1163 -540 136 -108 374 -345 480 -479 245 -306 442 -666
573 -1047 135 -389 177 -656 189 -1173 6 -296 -6 -504 -36 -644 -62 -282 -212
-554 -455 -825 -95 -106 -142 -137 -254 -172 -121 -37 -183 -66 -292 -138
-355 -237 -642 -672 -715 -1086 -26 -145 -32 -427 -11 -531 42 -205 145 -396
305 -562 176 -182 372 -291 589 -326 107 -17 145 -32 179 -68 38 -40 44 -73
13 -73 -11 0 -45 13 -76 29 -114 61 -196 49 -233 -35 -42 -95 -166 -211 -406
-379 -161 -114 -197 -128 -330 -133 -60 -2 -144 1 -184 7 -192 30 -246 98
-406 505 -171 435 -293 559 -875 891 -544 311 -716 444 -799 620 -41 84 -53
157 -53 309 1 458 226 932 587 1234 115 97 351 255 545 368 370 213 412 242
463 316 20 31 27 53 27 90 0 62 -20 100 -67 130 -55 33 -184 31 -305 -5 -118
-36 -350 -136 -483 -209 -680 -371 -1184 -990 -1306 -1606 -45 -227 -34 -605
22 -788 101 -328 409 -610 1074 -984 239 -135 391 -236 445 -297 49 -56 132
-217 200 -388 201 -509 387 -712 720 -790 182 -42 561 -45 679 -5 161 54 336
164 438 274 80 89 153 230 189 371 14 55 27 106 30 114 9 27 200 -386 254
-549 68 -204 75 -267 75 -675 0 -389 -9 -488 -61 -725 -89 -402 -272 -735
-552 -1001 -224 -213 -417 -317 -682 -366 -138 -26 -569 -26 -725 0 -566 95
-1119 363 -1597 775 -122 105 -346 335 -433 445 -219 276 -335 523 -401 852
-43 218 -77 268 -193 280 -31 3 -72 14 -91 23 -19 9 -88 71 -153 137 -685 692
-1233 1756 -1501 2915 -115 500 -143 809 -133 1470 8 470 21 605 88 875 108
433 340 943 636 1395 209 319 445 610 728 899 425 433 795 715 1219 928 406
204 853 326 1326 363 151 11 431 4 572 -16z"/>
<path d="M4685 10783 c-120 -6 -343 -35 -463 -59 -344 -70 -719 -227 -1022
-429 -172 -114 -264 -189 -419 -340 -249 -242 -429 -490 -594 -821 -191 -382
-276 -702 -264 -989 9 -208 51 -375 90 -362 16 5 39 83 88 304 71 321 137 512
259 753 132 258 278 458 495 676 242 243 455 394 780 554 301 148 459 201 715
237 104 15 198 18 570 18 417 0 451 -1 540 -21 113 -25 194 -57 355 -137 218
-108 372 -223 557 -415 346 -359 544 -749 703 -1381 46 -187 66 -297 74 -423
6 -83 12 -112 26 -128 40 -44 77 -13 95 81 20 105 40 386 40 569 -1 325 -43
538 -167 845 -253 624 -721 1093 -1329 1331 -286 112 -687 160 -1129 137z"/>
</g>
</svg>
