<?xml version="1.0" standalone="no"?>
<!DOCTYPE svg PUBLIC "-//W3C//DTD SVG 20010904//EN"
 "http://www.w3.org/TR/2001/REC-SVG-20010904/DTD/svg10.dtd">
<svg version="1.0" xmlns="http://www.w3.org/2000/svg"
 width="1280.000000pt" height="1011.000000pt" viewBox="0 0 1280.000000 1011.000000"
 preserveAspectRatio="xMidYMid meet">
<metadata>
Created by potrace 1.15, written by Peter Selinger 2001-2017
</metadata>
<g transform="translate(0.000000,1011.000000) scale(0.100000,-0.100000)"
fill="#000000" stroke="none">
<path d="M1785 9865 c-191 -36 -349 -113 -477 -234 -164 -154 -260 -341 -302
-588 -12 -73 -11 -96 5 -230 18 -138 72 -562 169 -1313 22 -173 54 -418 70
-545 16 -126 52 -408 80 -625 l51 -395 -27 -75 c-60 -166 -108 -244 -225 -368
-477 -501 -771 -1118 -880 -1847 -9 -60 -14 -181 -13 -360 0 -283 14 -419 65
-650 98 -443 302 -860 607 -1245 101 -127 392 -417 519 -518 542 -429 1163
-642 1868 -642 764 0 1500 264 2350 842 105 71 274 187 377 257 214 145 342
221 377 221 38 0 144 -61 361 -210 113 -76 291 -197 395 -268 743 -506 1398
-769 2070 -832 158 -14 447 -12 610 5 719 76 1305 349 1819 845 513 496 793
1057 893 1790 22 167 26 683 5 850 -45 370 -110 598 -247 865 -80 156 -157
279 -335 533 -80 114 -217 308 -303 430 l-157 224 0 113 c0 68 16 249 40 456
22 189 51 441 65 559 13 118 49 429 80 690 30 261 69 594 85 740 17 146 39
335 50 420 22 184 15 329 -25 487 -86 340 -291 530 -655 609 -114 24 -372 29
-499 10 -520 -80 -835 -448 -955 -1116 -33 -183 -43 -299 -56 -635 -29 -752
-109 -1295 -260 -1767 -55 -171 -108 -251 -342 -514 -379 -427 -1404 -1426
-1918 -1870 -258 -223 -491 -394 -613 -450 -53 -24 -67 -26 -150 -22 -142 6
-176 26 -365 210 -86 84 -323 315 -527 513 -891 866 -1784 1749 -1835 1814
-82 104 -128 187 -156 276 -19 63 -55 328 -169 1260 -80 649 -152 1239 -160
1310 -65 554 -351 882 -855 981 -120 23 -401 28 -505 9z"/>
</g>
</svg>
