<?xml version="1.0" standalone="no"?>
<!DOCTYPE svg PUBLIC "-//W3C//DTD SVG 20010904//EN"
 "http://www.w3.org/TR/2001/REC-SVG-20010904/DTD/svg10.dtd">
<svg version="1.0" xmlns="http://www.w3.org/2000/svg"
 width="1280.000000pt" height="907.000000pt" viewBox="0 0 1280.000000 907.000000"
 preserveAspectRatio="xMidYMid meet">
<metadata>
Created by potrace 1.15, written by Peter Selinger 2001-2017
</metadata>
<g transform="translate(0.000000,907.000000) scale(0.100000,-0.100000)"
fill="#000000" stroke="none">
<path d="M3598 9050 c-22 -30 -24 -70 -3 -70 16 0 28 36 23 71 l-3 24 -17 -25z"/>
<path d="M8444 8601 c-92 -25 -147 -53 -262 -135 -223 -158 -398 -309 -817
-702 -286 -269 -480 -463 -1034 -1039 -90 -93 -477 -483 -861 -865 -384 -382
-828 -832 -987 -1000 -192 -202 -377 -384 -549 -540 -354 -322 -379 -346 -876
-841 -473 -471 -516 -511 -773 -704 -208 -157 -408 -324 -580 -485 -236 -223
-666 -654 -739 -740 -39 -47 -101 -115 -138 -151 -85 -84 -119 -94 -283 -93
-100 1 -133 6 -199 28 -92 31 -136 32 -191 7 -57 -26 -98 -77 -130 -164 -41
-113 -35 -131 78 -242 271 -267 677 -519 898 -557 65 -11 67 -11 140 24 41 19
169 102 284 182 422 296 587 372 791 364 81 -3 96 -6 116 -26 l23 -22 -30 -58
c-16 -31 -84 -133 -149 -227 -224 -319 -306 -451 -306 -494 0 -33 119 -121
164 -121 22 0 51 35 102 122 60 102 158 232 269 359 121 137 407 398 508 463
94 61 234 202 266 270 17 33 25 78 33 173 10 127 8 158 -22 348 -7 41 -10 144
-8 245 l4 175 48 115 c85 203 110 245 231 366 160 162 573 482 715 554 30 15
124 74 209 129 85 56 161 101 168 101 7 0 20 11 29 25 9 14 23 25 30 25 8 0
24 11 36 25 12 14 30 25 39 25 10 0 23 9 29 20 8 15 21 20 50 20 52 0 70 8 70
32 0 17 5 19 39 13 28 -5 40 -3 44 8 3 8 24 17 48 20 23 3 67 19 98 36 31 17
92 48 136 68 85 40 293 145 833 421 355 181 564 311 786 487 59 48 143 110
185 138 93 62 207 147 506 376 160 123 283 227 406 346 97 94 202 190 234 215
134 106 519 516 538 573 7 22 60 -23 227 -192 208 -210 362 -385 505 -576 62
-82 193 -244 291 -360 98 -115 246 -295 329 -400 225 -282 398 -470 804 -874
349 -347 470 -461 492 -461 17 0 -14 49 -163 255 -198 276 -184 251 -150 269
82 43 172 129 401 386 389 437 474 553 579 785 69 152 69 153 124 132 24 -8
59 -18 80 -21 23 -4 42 -15 52 -31 9 -14 38 -36 65 -50 116 -58 258 -194 384
-367 39 -54 71 -97 72 -95 1 1 5 225 9 497 l7 495 -118 120 c-190 193 -324
337 -350 377 -46 69 -480 409 -592 464 -31 15 -61 34 -67 42 -6 8 -16 12 -23
8 -6 -4 -15 2 -20 16 -21 54 -106 113 -456 318 -348 204 -677 427 -1065 725
-219 168 -304 225 -333 225 -13 0 -26 9 -32 22 -14 31 -107 91 -475 304 -389
225 -429 245 -545 279 -121 36 -192 40 -281 16z m4087 -2708 c80 -84 129 -141
129 -152 0 -13 -28 -21 -46 -14 -10 4 -14 13 -10 26 7 28 -11 47 -45 47 -42 0
-45 -17 -9 -66 39 -54 35 -82 -4 -31 -31 40 -57 49 -53 18 1 -11 -2 -21 -8
-23 -5 -2 -11 12 -13 30 -4 40 -20 41 -61 3 -21 -20 -29 -35 -25 -48 4 -14 1
-13 -15 5 -11 13 -26 41 -32 62 -11 35 -9 43 15 84 14 24 26 56 26 70 0 36 15
40 37 10 17 -23 22 -25 41 -15 19 10 20 15 11 32 -5 11 -17 23 -25 26 -8 3
-14 9 -14 14 0 18 34 -9 101 -78z m-35 -242 c-3 -4 -26 -14 -51 -21 -25 -7
-57 -22 -70 -32 -28 -22 -34 -9 -7 14 29 26 76 47 105 48 16 0 26 -4 23 -9z
m211 -84 c-5 -15 -54 -33 -64 -23 -4 4 2 15 15 24 20 16 21 19 8 37 -27 36
-16 41 15 7 17 -19 28 -39 26 -45z m-162 -41 c0 -26 -19 -31 -39 -11 -20 21
-11 37 17 33 14 -2 22 -10 22 -22z m210 -3 c-11 -7 -26 -13 -34 -13 -12 1 -10
6 8 20 12 11 28 17 34 13 6 -4 3 -11 -8 -20z m-182 -201 c11 -18 15 -32 10
-32 -16 0 -53 40 -53 56 0 24 23 11 43 -24z m-14 -111 c8 -14 7 -22 -4 -31
-19 -16 -45 3 -45 31 0 25 36 25 49 0z m-9799 -3810 c0 -16 -30 -33 -47 -26
-17 6 -17 7 1 21 22 16 46 19 46 5z"/>
<path d="M12480 5871 c0 -29 -2 -30 -30 -24 -34 6 -41 -14 -14 -41 28 -29 79
18 72 66 -5 35 -28 34 -28 -1z"/>
<path d="M12360 5775 c0 -19 36 -39 45 -25 8 13 -13 40 -31 40 -8 0 -14 -7
-14 -15z"/>
<path d="M3690 8202 c0 -18 59 -64 74 -59 33 13 15 33 -48 57 -14 5 -26 6 -26
2z"/>
<path d="M3812 8113 c5 -25 28 -28 28 -4 0 12 -6 21 -16 21 -9 0 -14 -7 -12
-17z"/>
<path d="M11416 3372 c-3 -6 5 -23 19 -39 18 -21 24 -24 25 -12 0 24 -35 65
-44 51z"/>
</g>
</svg>
