<?xml version="1.0" standalone="no"?>
<!DOCTYPE svg PUBLIC "-//W3C//DTD SVG 20010904//EN"
 "http://www.w3.org/TR/2001/REC-SVG-20010904/DTD/svg10.dtd">
<svg version="1.0" xmlns="http://www.w3.org/2000/svg"
 width="512.000000pt" height="512.000000pt" viewBox="0 0 512.000000 512.000000"
 preserveAspectRatio="xMidYMid meet">

<g transform="translate(0.000000,512.000000) scale(0.100000,-0.100000)"
fill="#000000" stroke="none">
<path d="M542 5113 c-7 -3 -19 -17 -27 -33 -13 -25 -12 -40 10 -144 26 -129
57 -204 103 -257 69 -78 206 -121 323 -100 34 6 65 8 69 6 4 -3 11 -22 15 -42
19 -102 129 -399 161 -434 26 -29 89 -26 110 6 22 34 15 67 -41 203 -70 171
-145 493 -145 621 l0 31 1440 0 1440 0 0 -52 c-1 -128 -45 -354 -106 -543 -43
-132 -174 -403 -243 -500 -27 -38 -82 -122 -122 -185 -125 -197 -193 -280
-284 -345 -144 -103 -253 -120 -740 -112 -258 4 -342 9 -385 21 -189 54 -333
190 -558 527 -50 75 -98 144 -107 153 -26 26 -80 21 -104 -10 -12 -15 -21 -34
-21 -44 0 -20 52 -103 136 -216 l58 -78 13 -316 c18 -413 13 -667 -15 -773
-56 -206 -205 -373 -439 -491 -155 -77 -268 -111 -650 -190 -316 -66 -397 -89
-418 -119 -13 -19 -15 -120 -15 -835 l0 -813 25 -24 c23 -24 28 -25 175 -25
83 0 159 4 169 10 10 5 24 22 30 39 10 24 10 34 -3 59 -20 39 -30 42 -147 42
l-99 0 0 725 0 724 38 10 c20 6 159 36 307 67 427 88 596 147 788 274 184 122
305 272 366 455 48 143 55 230 47 575 -4 168 -9 323 -13 345 l-6 40 59 -56
c76 -71 138 -113 227 -154 149 -68 166 -70 627 -69 396 0 419 1 494 22 106 29
208 80 283 141 l62 50 -2 -347 c-1 -191 2 -374 6 -406 15 -104 87 -147 141
-83 14 18 17 31 12 72 -16 125 -18 336 -6 644 l13 334 128 195 c187 282 292
506 358 765 16 61 33 112 38 112 4 0 33 -4 65 -8 70 -10 165 6 228 38 96 49
147 136 185 320 22 105 23 121 10 145 -8 15 -22 30 -30 34 -20 7 -4014 7
-4033 -1z m436 -255 c14 -125 15 -122 -53 -132 -49 -8 -125 7 -161 31 -29 18
-68 91 -79 143 -3 19 -9 43 -11 53 -5 16 7 17 143 17 l149 0 12 -112z m3465
80 c-12 -65 -47 -144 -75 -170 -33 -31 -121 -53 -171 -43 -66 13 -64 11 -56
68 4 28 8 80 8 115 l1 62 150 0 150 0 -7 -32z"/>
<path d="M3623 2290 c-32 -13 -56 -55 -49 -85 10 -41 152 -181 250 -246 206
-138 362 -193 826 -288 135 -28 262 -56 283 -61 l37 -11 0 -724 0 -725 -2176
0 c-1373 0 -2182 -4 -2193 -10 -10 -5 -24 -22 -30 -39 -10 -24 -10 -34 3 -59
8 -16 23 -32 31 -36 9 -3 1018 -6 2241 -6 l2225 0 24 25 25 24 0 813 c0 716
-2 816 -15 835 -19 27 -91 50 -290 92 -373 78 -477 103 -578 136 -204 67 -370
166 -485 291 -70 75 -93 88 -129 74z"/>
<path d="M837 1532 c-23 -25 -22 -85 2 -106 21 -19 -2 -16 726 -110 275 -36
521 -73 548 -82 68 -23 128 -88 182 -197 49 -99 74 -127 112 -127 30 0 73 42
73 70 0 35 -85 200 -135 263 -55 69 -116 110 -205 138 -63 19 -1167 169 -1248
169 -25 0 -45 -7 -55 -18z"/>
<path d="M3600 1474 c-305 -40 -575 -78 -599 -84 -135 -34 -239 -127 -316
-285 -53 -108 -57 -144 -19 -174 58 -46 91 -25 148 94 54 114 117 183 191 209
28 9 307 50 620 91 314 41 585 77 603 80 67 12 94 77 52 123 -17 18 -31 22
-73 21 -29 -1 -302 -34 -607 -75z"/>
</g>
</svg>
