<?xml version="1.0" standalone="no"?>
<!DOCTYPE svg PUBLIC "-//W3C//DTD SVG 20010904//EN"
 "http://www.w3.org/TR/2001/REC-SVG-20010904/DTD/svg10.dtd">
<svg version="1.0" xmlns="http://www.w3.org/2000/svg"
 width="640.000000pt" height="1280.000000pt" viewBox="0 0 640.000000 1280.000000"
 preserveAspectRatio="xMidYMid meet">
<metadata>
Created by potrace 1.15, written by Peter Selinger 2001-2017
</metadata>
<g transform="translate(0.000000,1280.000000) scale(0.100000,-0.100000)"
fill="#770099" stroke="none">
<path d="M4285 11986 c-38 -17 -88 -70 -109 -116 -17 -38 -105 -144 -113 -136
-10 10 39 86 74 115 21 17 34 31 29 31 -11 0 -350 -175 -425 -219 -29 -18 -55
-30 -58 -27 -2 2 24 35 59 72 61 66 62 67 23 44 -302 -177 -719 -498 -839
-644 -21 -26 -40 -45 -43 -43 -6 6 48 120 83 176 15 24 21 40 13 36 -41 -24
-113 -92 -145 -138 -21 -29 -41 -56 -46 -62 -9 -10 -2 43 12 88 17 54 -17 28
-60 -45 -153 -259 -267 -428 -409 -607 -375 -472 -360 -448 -483 -766 -83
-216 -161 -379 -259 -540 -81 -133 -114 -207 -183 -404 -74 -212 -143 -509
-200 -863 -55 -336 -67 -384 -130 -501 -76 -142 -100 -210 -135 -388 -30 -154
-74 -446 -88 -589 l-8 -75 -30 42 c-16 24 -34 43 -39 43 -5 0 -6 -99 -3 -222
5 -245 14 -296 65 -376 35 -54 57 -126 71 -232 16 -122 22 -216 12 -200 -7 13
-41 131 -71 249 -6 23 -13 41 -14 40 -6 -7 13 -322 24 -414 19 -147 36 -207
94 -316 60 -115 132 -293 166 -411 18 -60 36 -95 85 -160 78 -104 243 -292
426 -488 79 -84 130 -146 117 -141 -174 68 -352 196 -479 344 -134 158 -266
388 -335 584 -16 46 -32 83 -36 83 -14 0 124 -386 172 -481 11 -21 19 -39 16
-39 -2 0 -47 68 -101 150 -53 83 -98 150 -101 150 -7 0 125 -268 184 -372 33
-60 57 -108 54 -108 -4 0 -20 9 -37 20 -16 11 -34 20 -38 20 -21 0 231 -317
333 -420 l76 -76 -60 4 -61 5 60 -69 c136 -158 216 -246 330 -363 126 -131
122 -132 -39 -18 -191 135 -375 306 -476 440 -69 93 -60 56 13 -51 132 -192
317 -393 458 -497 34 -25 57 -45 53 -45 -19 0 -217 101 -284 144 -39 26 -93
67 -120 92 -29 27 -51 41 -55 34 -8 -13 249 -277 365 -374 47 -39 117 -91 155
-116 l69 -45 -119 -3 c-145 -3 -232 9 -299 42 -28 14 -52 23 -55 21 -2 -3 1
-16 7 -30 20 -45 175 -105 349 -135 40 -7 70 -16 68 -21 -3 -4 -43 -10 -90
-14 -92 -8 -109 -19 -44 -29 128 -20 300 -165 407 -341 27 -46 32 -66 51 -240
46 -407 110 -743 177 -938 44 -127 75 -184 125 -233 32 -32 46 -38 81 -39 26
0 51 -7 62 -17 31 -28 63 -23 82 14 30 58 29 297 -3 499 l-5 36 58 7 c125 15
323 59 438 97 124 40 173 65 240 118 l39 31 -29 0 c-16 0 -110 -7 -209 -15
-276 -23 -284 -20 -100 30 189 51 325 94 415 129 l65 25 -80 1 -80 1 85 25
c125 36 256 104 310 160 25 25 36 42 25 36 -32 -15 -281 -98 -385 -127 -123
-35 -317 -75 -355 -74 -36 1 -65 -10 242 88 245 79 465 164 558 216 64 36 147
112 110 102 -20 -6 -171 -43 -209 -52 -22 -5 -25 -7 73 76 91 78 205 228 187
246 -3 4 -61 -10 -128 -30 -361 -107 -887 -227 -944 -215 -9 2 40 20 109 40
275 81 572 202 722 294 75 45 187 126 182 131 -2 1 -39 -9 -82 -22 -44 -13
-237 -69 -430 -125 -192 -56 -420 -124 -505 -150 -85 -27 -156 -47 -158 -45
-5 5 404 205 543 265 159 69 314 129 455 175 99 32 151 55 127 55 -4 0 -175
-33 -380 -74 -382 -77 -466 -92 -457 -84 3 3 75 47 160 98 299 179 532 344
650 459 98 97 93 109 -17 37 -261 -170 -652 -379 -936 -499 -137 -58 -358
-142 -427 -162 -14 -4 69 57 183 134 465 316 803 576 991 764 65 65 116 121
112 124 -3 3 -11 1 -18 -4 -7 -6 -62 -36 -122 -68 l-109 -58 87 104 c100 118
205 271 236 343 11 27 19 50 18 52 -2 1 -39 -43 -83 -98 -87 -110 -272 -304
-281 -296 -3 4 10 28 29 55 98 138 234 391 292 543 42 110 82 267 91 361 l7
73 -39 -31 c-21 -17 -52 -45 -68 -62 -17 -17 -33 -31 -38 -31 -4 0 56 73 133
163 188 215 279 328 279 347 0 8 -82 -66 -182 -165 -179 -177 -268 -260 -237
-220 322 404 369 465 403 523 5 8 -32 -15 -80 -50 -125 -90 -126 -90 -58 -12
34 38 84 100 113 137 42 57 51 75 51 110 l0 42 -207 -205 c-115 -113 -221
-217 -237 -230 -35 -30 -39 -36 100 150 172 231 341 490 319 490 -3 0 -39 -29
-80 -65 -41 -36 -78 -65 -81 -65 -3 0 3 15 14 33 73 119 133 232 147 275 l7
23 -42 -26 c-23 -15 -44 -24 -47 -21 -3 3 15 81 41 173 50 177 50 177 300 622
23 42 26 53 13 48 -9 -4 -25 -10 -34 -14 -10 -4 10 24 45 61 82 89 139 161
163 208 l19 38 -25 0 c-14 0 -25 4 -25 8 0 5 36 88 79 185 43 97 76 178 73
181 -3 3 -16 6 -29 6 -13 0 -23 4 -23 8 0 4 15 37 34 72 19 36 60 132 91 214
31 82 74 184 95 226 22 43 36 80 33 84 -4 3 -20 -6 -36 -21 l-29 -28 32 54
c57 99 120 229 144 303 22 68 24 92 29 347 l4 274 -43 -69 c-24 -38 -44 -66
-44 -63 0 4 19 53 41 110 47 119 68 220 69 332 l0 77 88 125 c112 160 187 279
207 330 l16 40 -56 -60 c-63 -67 -63 -66 45 130 42 77 83 151 90 165 8 15 -25
-8 -82 -58 -53 -45 -98 -82 -101 -82 -3 0 12 53 33 118 42 129 81 282 71 282
-3 0 -21 -38 -39 -84 -30 -77 -89 -183 -96 -175 -5 5 80 334 90 351 4 7 52 78
106 157 l99 144 -21 22 c-16 17 -22 43 -31 136 -19 220 -51 352 -107 444 -22
36 -39 78 -42 105 -4 37 -9 46 -27 48 -13 2 -32 17 -44 33 l-21 30 43 86 c40
77 44 94 48 169 2 59 -2 98 -14 136 -25 75 -26 75 -48 32 l-21 -39 -21 90 -21
90 -39 -52 c-22 -29 -42 -53 -46 -53 -4 0 -10 11 -13 25 -3 13 -11 37 -17 52
-10 27 -11 27 -24 9 -14 -19 -15 -18 -32 2 -14 17 -31 22 -82 23 -43 2 -66 -1
-69 -9 -2 -8 -35 -12 -102 -12 -90 0 -99 2 -105 20 -8 25 -19 25 -61 -1 -33
-20 -36 -20 -81 -5 -76 26 -127 21 -200 -20 l-63 -35 6 40 7 41 -34 0 c-19 -1
-47 -7 -64 -14z"/>
</g>
</svg>
